<?xml version="1.0" encoding="UTF-8"?>
<svg id="Laag_2" xmlns="http://www.w3.org/2000/svg" version="1.1" viewBox="0 0 385 125">
  <!-- Generator: Adobe Illustrator 29.5.1, SVG Export Plug-In . SVG Version: 2.1.0 Build 141)  -->
  <defs>
    <style>
      .st0 {
        fill: #fff;
      }
    </style>
  </defs>
  <g id="Laag_1-2">
    <g>
      <path class="st0" d="M25.1,38.1c-1.4,1.3-3.1,2-5.1,2s-3.7-.7-5-2.1c-1.3-1.4-2-3.1-2-5s.7-3.6,2-5c1.3-1.4,3-2.1,5-2.1s3.7.7,5.1,2c1.4,1.3,2.1,3,2.1,5.1s-.7,3.7-2.1,5.1ZM14.6,92.2v-42.1l11.1-2.1v44.1h-11.1Z"/>
      <path class="st0" d="M57,46.6c4.2,0,8,1.2,11.4,3.5-2.6,2.8-4.4,6.1-5.4,9.9-1.7-1.5-3.7-2.3-6-2.3s-3.3.4-4.7,1.3c-1.4.8-2.6,2-3.4,3.4s-1.3,3-1.3,4.7v25.1h-11.2v-25.1c0-5.6,2-10.4,6-14.5,4-4,8.8-6,14.5-6ZM86.9,46.6c2.7,0,5.4.6,7.9,1.6,2.5,1.1,4.7,2.6,6.6,4.4,1.8,1.8,3.3,4,4.4,6.6s1.6,5.2,1.6,7.9v25.1h-11.2v-25.1c0-2.6-.9-4.8-2.8-6.6-1.8-1.8-4-2.8-6.6-2.8s-4.8.9-6.6,2.7c-1.8,1.8-2.8,4-2.8,6.6v25.2h-11.2v-25.1c0-5.6,2-10.4,6-14.5,4-4,8.8-6,14.5-6h0Z"/>
      <path class="st0" d="M164.2,53.3c2.1,2.1,3.8,4.5,5.1,7.4s1.9,6.1,1.9,9.6-.6,6.7-1.9,9.5-3,5.3-5.1,7.3c-2.1,2-4.7,3.6-7.6,4.7-3,1.1-6.1,1.7-9.4,1.7s-6.4-.6-9.4-1.7c-1.3-.5-2.6-1.1-3.7-1.9v26l-10.9,2.1v-55.1c0-2-.4-3.6-1.1-4.9-.7-1.3-2.3-1.9-4.7-1.9h-.6v-8.7c1.3-.1,2.5-.2,3.6-.2,2.9,0,5.3.4,7.2,1.2s3.3,1.9,4.4,3.4c1.1,1.4,1.8,3.1,2.2,5,.4,1.9.6,3.9.6,6.1v9.8c0,.9.1,1.9.4,2.8.6,1.7,1.4,3.2,2.4,4.5,1,1.3,2.3,2.4,3.9,3.2,1.6.8,3.5,1.2,5.7,1.2s4.1-.4,5.7-1.2c1.6-.8,2.9-1.9,3.9-3.2,1-1.3,1.8-2.9,2.3-4.5s.8-3.4.8-5.1-.3-3.4-.8-5.2-1.3-3.3-2.3-4.6c-1-1.4-2.3-2.5-3.9-3.3s-3.5-1.3-5.7-1.3-4.1.4-5.8,1.3c-1.1.6-2.2,1.4-3.2,2.5,0-1.9-.2-3.5-.5-4.8-.4-1.9-1.2-3.5-2.3-5,0,0,0-.1-.1-.2,0,0-.1-.1-.1-.2.9-.5,1.8-.9,2.5-1.2,2.9-1.1,6.1-1.7,9.4-1.7s6.4.6,9.4,1.7c3,1.2,5.5,2.8,7.6,4.8h0Z"/>
      <path class="st0" d="M201.1,48.1c1.5,0,3.4,0,5.8,0v10.6h-5.8c-2.6,0-4.8,1-6.6,3-1.8,2-2.8,4.3-2.8,6.9v23.6h-11.2v-23.6c0-5.6,2-10.4,6-14.5,4-4,8.8-6,14.5-6h0Z"/>
      <path class="st0" d="M257.3,53.1c2.1,2,3.8,4.5,5.1,7.4,1.3,2.9,1.9,6.1,1.9,9.6s-.6,6.7-1.9,9.6c-1.3,2.9-3,5.3-5.1,7.4-2.1,2.1-4.7,3.7-7.6,4.8-3,1.2-6.1,1.7-9.4,1.7s-6.4-.6-9.4-1.7-5.5-2.8-7.6-4.8-3.9-4.5-5.1-7.4c-1.3-2.9-1.9-6.1-1.9-9.6s.6-6.7,1.9-9.6,3-5.3,5.1-7.4c2.2-2,4.7-3.6,7.6-4.7s6.1-1.6,9.4-1.6,6.4.5,9.4,1.6,5.5,2.6,7.6,4.7ZM250,79.7c1-1.3,1.8-2.9,2.3-4.6.5-1.7.8-3.4.8-5.2s-.3-3.4-.8-5.1c-.5-1.7-1.3-3.2-2.3-4.5s-2.3-2.4-3.9-3.3c-1.6-.8-3.5-1.3-5.7-1.3s-4.1.4-5.7,1.3c-1.6.8-2.9,1.9-4,3.3-1.1,1.3-1.8,2.9-2.3,4.5-.5,1.7-.7,3.4-.7,5.1s.3,3.4.7,5.2c.5,1.7,1.3,3.3,2.3,4.6,1.1,1.3,2.4,2.5,4,3.3,1.6.9,3.5,1.3,5.7,1.3s4.1-.4,5.7-1.3c1.6-.9,2.9-2,3.9-3.3Z"/>
      <path class="st0" d="M309.2,48.1h11.7l-15.4,38.7c-.7,1.6-1.8,2.9-3.2,3.9-1.5,1-3.1,1.5-4.9,1.5s-3.4-.5-4.9-1.5c-1.5-1-2.5-2.3-3.2-3.9l-15.6-38.7h12.1l10.5,27.9c.3,1,.7,1.5,1.3,1.5.5,0,1-.5,1.4-1.5l10.3-27.9h0Z"/>
      <path class="st0" d="M369,52.8c1.9,2,3.4,4.5,4.5,7.5,1.1,3,1.6,6.5,1.6,10.4v1.5c0,.5,0,1,0,1.5h-29.8v-8h18.8c0-1.4-.2-2.7-.6-4-.4-1.3-1-2.4-1.9-3.4s-2-1.8-3.3-2.4-2.9-.9-4.7-.9c-3.3,0-6.1,1-8.4,3-2.3,2-3.5,4.6-3.8,7.7-.3,2.4-.3,5.1,0,8,.1,1.6.5,3,1.2,4.4s1.6,2.5,2.8,3.4c1.2.9,2.5,1.7,4,2.3s3,.8,4.5.8c2.8,0,5.2-.5,7-1.5,1.8-1,3.2-2,4.1-2.9l6,7.1c-4.7,4.2-10.4,6.3-17.1,6.3s-6.6-.5-9.5-1.6c-2.9-1.1-5.4-2.6-7.5-4.5s-3.8-4.4-5-7.3c-1.2-2.9-1.8-6.1-1.8-9.7s.6-6.7,1.8-9.6c1.2-2.9,2.8-5.4,4.9-7.5,2.1-2.1,4.6-3.6,7.4-4.8,2.8-1.1,5.9-1.7,9.2-1.7s6,.5,8.6,1.5c2.6,1,4.8,2.5,6.7,4.5h0Z"/>
    </g>
  </g>
</svg>