<svg xmlns="http://www.w3.org/2000/svg" width="212" height="39" fill="none"><g fill="#fff" clip-path="url(#a)"><path d="M25.63 38.519c10.636 0 19.259-8.623 19.259-19.26V5.778A5.778 5.778 0 0 0 39.11 0H26.592v8.449c0 1.928.118 3.925 1.129 5.566a9.63 9.63 0 0 0 6.648 4.456l.37.06a.77.77 0 0 1 0 1.457l-.37.06a9.63 9.63 0 0 0-7.95 7.951l-.06.369a.77.77 0 0 1-1.459 0l-.06-.369a9.632 9.632 0 0 0-4.455-6.648c-1.64-1.011-3.638-1.129-5.566-1.129H6.393c.504 10.19 8.923 18.297 19.236 18.297Z"/><path d="M6 18.486h8.216c1.874 0 3.816-.118 5.412-1.14a9.572 9.572 0 0 0 3.066-3.185c.983-1.658 1.097-3.676 1.097-5.624V0H11.618C10.128 0 8.7.615 7.646 1.71A5.956 5.956 0 0 0 6 5.838v12.648Zm43.499-16.54c0 .516-.198 1.011-.549 1.376-.35.365-.827.57-1.324.57-.497 0-.973-.205-1.324-.57a1.985 1.985 0 0 1-.549-1.376c0-.516.198-1.011.549-1.376.351-.365.827-.57 1.324-.57.497 0 .973.205 1.324.57.351.365.549.86.549 1.376Zm154.739 9.83c5.236 0 7.762 3.8 7.762 8.201v8.265h-5.479v-7.284c0-1.995-.7-3.641-2.709-3.641-2.008 0-2.678 1.646-2.678 3.64v7.284h-5.478v-7.283c0-1.995-.67-3.641-2.679-3.641s-2.709 1.646-2.709 3.64v7.284h-5.478v-8.265c0-4.4 2.526-8.2 7.761-8.2 2.861 0 4.931 1.171 5.875 3.103 1.003-1.932 3.195-3.104 5.812-3.104v.002Zm-29.293 11.4c1.765 0 2.527-1.678 2.527-3.674V12.41h5.477v7.79c0 4.655-2.617 8.518-8.004 8.518-5.388 0-8.005-3.862-8.005-8.518v-7.79h5.479v7.093c0 1.995.76 3.674 2.526 3.674Zm-16.06 5.572c-3.439 0-5.661-1.234-6.971-3.64l3.958-2.312c.547 1.013 1.369 1.52 2.738 1.52 1.127 0 1.644-.412 1.644-.919 0-1.931-8.035.032-8.035-6.11 0-2.977 2.434-5.384 6.574-5.384 3.622 0 5.6 1.836 6.483 3.61l-3.957 2.343c-.334-.95-1.37-1.52-2.404-1.52-.791 0-1.218.349-1.218.823 0 1.964 8.035.159 8.035 6.112 0 3.324-3.135 5.477-6.847 5.477Zm-19.141 6.777h-5.479v-15.23c0-4.846 3.5-8.36 8.37-8.36 4.748 0 8.37 3.768 8.37 8.36 0 5.065-3.226 8.422-8.066 8.422-1.126 0-2.252-.348-3.195-.887v7.695Zm2.891-12.16c1.735 0 2.892-1.392 2.892-3.04 0-1.677-1.157-3.04-2.892-3.04-1.735 0-2.891 1.363-2.891 3.041 0 1.647 1.156 3.04 2.891 3.04Zm-13.858-12.633c-1.796 0-3.287-1.552-3.287-3.42 0-1.868 1.491-3.42 3.287-3.42 1.796 0 3.288 1.552 3.288 3.42 0 1.868-1.492 3.42-3.288 3.42Zm-2.739 1.677h5.479v15.833h-5.479V12.41Zm-10.512 16.308c-4.748 0-8.37-3.8-8.37-8.423 0-4.591 3.622-8.39 8.37-8.39 4.749 0 8.371 3.799 8.371 8.39 0 4.624-3.622 8.423-8.371 8.423Zm0-5.351c1.736 0 2.892-1.393 2.892-3.04 0-1.678-1.156-3.071-2.892-3.071-1.735 0-2.891 1.393-2.891 3.07 0 1.648 1.156 3.04 2.891 3.04ZM96.811 36c-3.773 0-6.513-1.742-7.913-4.845l4.535-2.533c.487 1.077 1.4 2.185 3.287 2.185 1.98 0 3.287-1.299 3.44-3.578-.73.665-1.888 1.171-3.622 1.171-4.231 0-7.64-3.388-7.64-8.138 0-4.59 3.622-8.328 8.37-8.328 4.87 0 8.37 3.516 8.37 8.36v6.27c0 5.7-3.805 9.436-8.827 9.436Zm.365-12.95c1.644 0 2.892-1.173 2.892-2.914 0-1.71-1.247-2.85-2.891-2.85-1.614 0-2.892 1.14-2.892 2.85 0 1.742 1.278 2.913 2.892 2.913Zm-17.571 5.667c-4.749 0-8.371-3.8-8.371-8.423 0-4.591 3.622-8.39 8.37-8.39 4.748 0 8.37 3.799 8.37 8.39 0 4.624-3.621 8.423-8.37 8.423Zm0-5.351c1.735 0 2.891-1.393 2.891-3.04 0-1.678-1.156-3.071-2.891-3.071s-2.892 1.393-2.892 3.07c0 1.648 1.157 3.04 2.892 3.04ZM61.258 6.869v15.99h9.07v5.383h-9.832c-3.469 0-4.869-1.9-4.869-4.908V6.869h5.63Z"/></g><defs><clipPath id="a"><path fill="#fff" d="M0 0h211.852v38.519H0z"/></clipPath></defs></svg>