<svg xmlns="http://www.w3.org/2000/svg" width="213" height="39" fill="none"><g clip-path="url(#a)"><g fill="#fff" clip-path="url(#b)"><path fill-rule="evenodd" d="M40.61 11.252a9.63 9.63 0 0 0-5.35-1.622V0A19.26 19.26 0 1 1 16 19.26h9.63a9.63 9.63 0 1 0 14.98-8.008Z" clip-rule="evenodd"/><path fill-rule="evenodd" d="M25.63 0A9.63 9.63 0 0 1 16 9.63v9.63A19.26 19.26 0 0 0 35.26 0h-9.63Z" clip-rule="evenodd"/><path d="M136.967 13.917h-4.672v14.841h4.672V13.917Zm-4.152-2.779c.488.488 1.099.733 1.832.733.732 0 1.333-.245 1.801-.733.469-.51.703-1.12.703-1.833 0-.732-.234-1.343-.703-1.832-.468-.488-1.069-.733-1.801-.733-.733 0-1.344.245-1.832.733-.469.489-.703 1.1-.703 1.832 0 .713.234 1.324.703 1.833ZM65.262 28.759V7.199h4.795v17.345h9.558v4.215H65.262Z"/><path fill-rule="evenodd" d="M88.25 29.094c-1.527 0-2.912-.335-4.154-1.007a7.842 7.842 0 0 1-2.9-2.81c-.713-1.18-1.07-2.504-1.07-3.97 0-1.466.357-2.779 1.07-3.94a7.685 7.685 0 0 1 2.9-2.748c1.222-.692 2.606-1.038 4.153-1.038 1.548 0 2.932.336 4.154 1.008a7.61 7.61 0 0 1 2.9 2.779c.713 1.16 1.07 2.473 1.07 3.94 0 1.465-.357 2.788-1.07 3.97a7.84 7.84 0 0 1-2.9 2.809c-1.222.672-2.606 1.007-4.154 1.007Zm0-4.244c.671 0 1.262-.143 1.77-.428a2.992 2.992 0 0 0 1.161-1.252c.285-.55.428-1.17.428-1.863 0-.692-.143-1.293-.428-1.801a2.994 2.994 0 0 0-1.19-1.222c-.49-.305-1.07-.458-1.742-.458-.651 0-1.231.152-1.74.458a2.995 2.995 0 0 0-1.191 1.222c-.285.529-.428 1.14-.428 1.832 0 .672.143 1.282.428 1.832a3.2 3.2 0 0 0 1.19 1.252c.51.285 1.09.428 1.742.428Zm11.823 9.711c1.242.57 2.677.855 4.306.855 1.588 0 3.003-.316 4.245-.947 1.242-.63 2.219-1.506 2.931-2.626.713-1.12 1.07-2.443 1.07-3.97V13.917h-4.582v.997a4.914 4.914 0 0 0-1.16-.722c-.794-.387-1.7-.58-2.718-.58-1.364 0-2.575.326-3.634.977-1.059.631-1.893 1.507-2.504 2.626-.61 1.1-.916 2.342-.916 3.726 0 1.364.305 2.606.916 3.726a6.986 6.986 0 0 0 2.504 2.656c1.059.652 2.27.978 3.634.978.998 0 1.904-.194 2.718-.58a5.457 5.457 0 0 0 1.069-.663v.937c0 1.039-.336 1.843-1.008 2.413-.651.57-1.557.855-2.718.855-.936 0-1.74-.163-2.412-.489-.652-.326-1.242-.804-1.772-1.435l-2.87 2.87c.712 1.018 1.68 1.802 2.901 2.352Zm6.657-10.841c-.468.285-1.028.428-1.679.428-.652 0-1.222-.143-1.71-.428a3.012 3.012 0 0 1-1.1-1.16 3.456 3.456 0 0 1-.397-1.619c0-.61.132-1.16.397-1.65a2.947 2.947 0 0 1 1.13-1.16c.489-.285 1.049-.427 1.68-.427.651 0 1.211.142 1.679.427.489.285.855.672 1.1 1.16.264.49.397 1.04.397 1.65 0 .61-.133 1.16-.397 1.649a2.794 2.794 0 0 1-1.1 1.13Zm15.727 5.374c-1.527 0-2.912-.335-4.153-1.007a7.833 7.833 0 0 1-2.901-2.81c-.713-1.18-1.069-2.504-1.069-3.97 0-1.466.356-2.779 1.069-3.94a7.677 7.677 0 0 1 2.901-2.748c1.221-.692 2.606-1.038 4.153-1.038 1.547 0 2.932.336 4.153 1.008a7.61 7.61 0 0 1 2.901 2.779c.713 1.16 1.069 2.473 1.069 3.94 0 1.465-.356 2.788-1.069 3.97a7.84 7.84 0 0 1-2.901 2.809c-1.221.672-2.606 1.007-4.153 1.007Zm0-4.244c.671 0 1.262-.143 1.771-.428a2.996 2.996 0 0 0 1.161-1.252c.285-.55.427-1.17.427-1.863 0-.692-.142-1.293-.427-1.801a2.99 2.99 0 0 0-1.192-1.222c-.488-.305-1.069-.458-1.74-.458-.652 0-1.232.152-1.741.458a2.994 2.994 0 0 0-1.191 1.222c-.285.529-.427 1.14-.427 1.832 0 .672.142 1.282.427 1.832.285.53.682.947 1.191 1.252.509.285 1.089.428 1.741.428Zm25.74 4.214c-.996 0-1.913-.193-2.748-.58a5.832 5.832 0 0 1-1.19-.73v7.265h-4.612V13.917h4.673v1.025a5.747 5.747 0 0 1 1.129-.72c.835-.407 1.752-.61 2.748-.61 1.405 0 2.648.336 3.726 1.008a6.94 6.94 0 0 1 2.565 2.748c.632 1.16.947 2.484.947 3.97 0 1.486-.315 2.81-.947 3.97a6.942 6.942 0 0 1-2.565 2.748c-1.078.672-2.321 1.008-3.726 1.008Zm-.854-4.214c.671 0 1.252-.153 1.74-.458.51-.306.906-.723 1.191-1.252.286-.53.428-1.13.428-1.802 0-.692-.142-1.303-.428-1.832a2.987 2.987 0 0 0-1.191-1.222c-.488-.305-1.058-.458-1.71-.458-.651 0-1.232.153-1.74.458a3.05 3.05 0 0 0-1.16 1.222c-.285.53-.428 1.14-.428 1.832 0 .672.132 1.272.397 1.802.285.529.682.946 1.191 1.252a3.257 3.257 0 0 0 1.71.458Z" clip-rule="evenodd"/><path d="M160.008 28.79c.855.223 1.72.335 2.595.335 1.853 0 3.319-.427 4.398-1.283 1.099-.855 1.649-2.005 1.649-3.45 0-.937-.173-1.69-.519-2.26a4.042 4.042 0 0 0-1.344-1.405 7.993 7.993 0 0 0-1.741-.825 26.777 26.777 0 0 0-1.74-.519c-.55-.142-.997-.305-1.344-.488-.346-.183-.519-.428-.519-.733 0-.285.133-.499.397-.642.264-.162.661-.244 1.191-.244.55 0 1.109.112 1.679.336.591.224 1.12.61 1.588 1.16l2.657-2.687c-.671-.855-1.547-1.496-2.626-1.924-1.058-.447-2.219-.671-3.481-.671-1.201 0-2.25.203-3.145.61-.897.408-1.589.967-2.077 1.68-.488.692-.733 1.517-.733 2.473 0 .896.173 1.64.519 2.23.346.57.794 1.018 1.343 1.343a7.82 7.82 0 0 0 1.741.764l1.741.519c.549.142.998.316 1.344.52.367.182.55.457.55.824 0 .285-.154.509-.459.672-.285.162-.702.244-1.252.244a5.564 5.564 0 0 1-2.198-.428 5.353 5.353 0 0 1-1.741-1.252l-2.657 2.688a8.276 8.276 0 0 0 1.833 1.465c.732.408 1.516.723 2.351.947Zm17.162.304c-1.364 0-2.575-.275-3.633-.824a6.375 6.375 0 0 1-2.443-2.321c-.592-.998-.886-2.138-.886-3.42v-8.612h4.672v8.55c0 .51.081.947.245 1.314.183.366.447.651.793.855.347.203.764.305 1.252.305.692 0 1.242-.214 1.65-.641.407-.448.61-1.059.61-1.833v-8.55h4.672v8.58c0 1.304-.294 2.454-.886 3.452a6.375 6.375 0 0 1-2.443 2.32c-1.038.55-2.238.825-3.603.825Zm13.927-15.177h-4.672V28.76h4.672v-8.673c0-.509.102-.937.306-1.283.224-.346.52-.61.886-.794a2.529 2.529 0 0 1 1.251-.305c.673 0 1.232.214 1.68.641.469.407.703.988.703 1.74v8.674h4.672v-8.673c0-.509.102-.937.305-1.283a2.23 2.23 0 0 1 .886-.794 2.532 2.532 0 0 1 1.252-.305c.672 0 1.232.214 1.68.641.468.407.702.988.702 1.74v8.674h4.673v-9.192c0-1.242-.265-2.3-.795-3.176a5.096 5.096 0 0 0-2.107-2.046c-.875-.489-1.883-.733-3.023-.733-1.161 0-2.209.254-3.145.763a5.71 5.71 0 0 0-1.596 1.256 5.202 5.202 0 0 0-1.55-1.317c-.814-.468-1.74-.702-2.778-.702-1.1 0-2.087.234-2.963.702a5.123 5.123 0 0 0-1.039.7v-1.097Z"/></g></g><defs><clipPath id="a"><path fill="#fff" d="M.964 0h211.852v38.519H.964z"/></clipPath><clipPath id="b"><path fill="#fff" d="M16 0h194.52v38.519H16z"/></clipPath></defs></svg>