<svg xmlns="http://www.w3.org/2000/svg" width="213" height="39" fill="none"><g clip-path="url(#a)"><g fill="#fff" clip-path="url(#b)"><path d="M125.824 28.43h4.491V11.493h-4.491V28.43Zm0-19.578h4.491V4.824h-4.491v4.028Zm7.384 25.125h4.491v-7.462h.065c.957 1.453 2.51 2.41 4.886 2.41 4.358 0 7.33-3.466 7.33-8.947 0-5.283-2.872-8.947-7.363-8.947-2.311 0-3.896 1.09-4.985 2.575h-.099v-2.113h-4.325v22.484Zm8.485-8.782c-2.674 0-4.094-2.014-4.094-5.085 0-3.037 1.122-5.447 3.929-5.447 2.774 0 3.895 2.245 3.895 5.447 0 3.203-1.452 5.085-3.73 5.085Zm17.244 3.73c4.226 0 7.131-2.047 7.131-5.447 0-3.962-3.136-4.755-5.976-5.349-2.41-.495-4.655-.627-4.655-2.08 0-1.221 1.156-1.882 2.906-1.882 1.915 0 3.07.66 3.268 2.476h4.061c-.33-3.4-2.806-5.612-7.263-5.612-3.863 0-6.901 1.75-6.901 5.414 0 3.698 2.972 4.523 6.009 5.118 2.311.462 4.457.627 4.457 2.245 0 1.189-1.122 1.948-3.103 1.948-2.014 0-3.401-.859-3.698-2.806h-4.16c.264 3.598 3.005 5.975 7.924 5.975Zm24.179-.495V11.493h-4.49v9.773c0 2.245-1.288 3.83-3.401 3.83-1.915 0-2.806-1.09-2.806-3.07V11.492h-4.457v11.292c0 3.697 2.112 6.108 5.877 6.108 2.377 0 3.697-.892 4.853-2.444h.099v1.981h4.325Zm2.904 0h4.49v-9.838c0-2.246 1.222-3.698 3.038-3.698 1.651 0 2.608.99 2.608 2.905V28.43h4.49v-9.838c0-2.246 1.156-3.698 3.038-3.698 1.651 0 2.608.99 2.608 2.905V28.43h4.49V17.04c0-3.698-2.014-6.01-5.58-6.01-2.145 0-3.929 1.123-5.084 2.972h-.066c-.825-1.783-2.542-2.971-4.688-2.971-2.344 0-3.995 1.188-4.919 2.74h-.099v-2.278h-4.326V28.43Zm-177.225 0h4.49V4.824h-4.49V28.43Zm15.469.495c5.25 0 8.848-3.896 8.848-8.947 0-5.051-3.599-8.947-8.848-8.947-5.25 0-8.848 3.896-8.848 8.947 0 5.051 3.598 8.947 8.848 8.947Zm0-3.433c-2.773 0-4.292-2.212-4.292-5.514s1.518-5.547 4.292-5.547c2.74 0 4.292 2.246 4.292 5.547 0 3.302-1.552 5.514-4.292 5.514Zm18.396 8.716c2.51 0 4.69-.594 6.109-1.915 1.254-1.156 2.014-2.773 2.014-5.15v-15.65h-4.325v1.783h-.066c-1.024-1.42-2.576-2.245-4.689-2.245-4.292 0-7.33 3.235-7.33 8.287 0 5.117 3.699 8.089 7.463 8.089 2.145 0 3.433-.859 4.424-1.981h.099v1.849c0 2.31-1.222 3.532-3.764 3.532-2.08 0-3.038-.825-3.4-1.882h-4.458c.462 3.302 3.302 5.283 7.924 5.283Zm-.065-10.4c-2.311 0-3.83-1.684-3.83-4.556 0-2.84 1.519-4.622 3.797-4.622 2.707 0 4.028 2.113 4.028 4.589 0 2.509-1.156 4.589-3.995 4.589Zm19.102 5.117c5.25 0 8.848-3.896 8.848-8.947 0-5.051-3.599-8.947-8.848-8.947-5.25 0-8.849 3.896-8.849 8.947 0 5.051 3.6 8.947 8.849 8.947Zm0-3.433c-2.774 0-4.292-2.212-4.292-5.514s1.518-5.547 4.292-5.547c2.74 0 4.292 2.246 4.292 5.547 0 3.302-1.552 5.514-4.292 5.514Zm150.717-16.78c0-.76.616-1.375 1.376-1.375h2.751a1.376 1.376 0 1 1 0 2.751h-2.751c-.76 0-1.376-.616-1.376-1.376Z"/><path fill-rule="evenodd" d="M97.776 0c10.636 0 19.259 8.623 19.259 19.26 0 10.636-8.623 19.259-19.26 19.259-10.636 0-19.259-8.623-19.259-19.26C78.516 8.623 87.14 0 97.776 0Zm-.696 1.441c-2.198.31-4.29 2.075-5.914 5.028A20.042 20.042 0 0 0 89.9 9.293c2.208-.555 4.634-.882 7.18-.933V1.441Zm-8.808 8.315a22.233 22.233 0 0 1 1.674-3.958c.805-1.464 1.76-2.728 2.837-3.699a17.905 17.905 0 0 0-12.168 12.168c.971-1.076 2.235-2.032 3.7-2.837a22.235 22.235 0 0 1 3.957-1.674Zm-.463 1.627c-.555 2.209-.882 4.634-.932 7.18h-6.92c.31-2.197 2.075-4.29 5.028-5.913a20.037 20.037 0 0 1 2.825-1.267Zm.46 7.18c.058-2.778.458-5.386 1.12-7.691 2.304-.662 4.912-1.062 7.69-1.12v3.008a10.246 10.246 0 0 1-5.803 5.803h-3.007Zm-1.392 1.392h-6.92c.31 2.198 2.075 4.29 5.028 5.914.856.47 1.803.896 2.825 1.266-.556-2.208-.883-4.634-.933-7.18Zm2.511 7.692c-.661-2.305-1.061-4.913-1.119-7.692h3.007a10.246 10.246 0 0 1 5.804 5.804v3.007c-2.779-.058-5.387-.458-7.692-1.12Zm-1.116 1.116a22.234 22.234 0 0 1-3.958-1.675c-1.464-.805-2.728-1.76-3.698-2.837A17.904 17.904 0 0 0 92.782 36.42c-1.076-.97-2.032-2.234-2.837-3.698a22.23 22.23 0 0 1-1.674-3.958Zm8.808 8.314c-2.198-.309-4.29-2.074-5.914-5.027a20.047 20.047 0 0 1-1.266-2.824c2.208.554 4.634.882 7.18.932v6.92Zm5.688-.658c1.077-.97 2.032-2.234 2.837-3.698a22.283 22.283 0 0 0 1.675-3.958 22.233 22.233 0 0 0 3.957-1.675c1.464-.805 2.728-1.76 3.699-2.837a17.906 17.906 0 0 1-12.168 12.168Zm2.884-7.193a20.128 20.128 0 0 1-1.267 2.824c-1.624 2.953-3.716 4.718-5.913 5.027v-6.919c2.546-.05 4.971-.378 7.18-.933Zm2.09-2.09a20.047 20.047 0 0 0 2.824-1.267c2.954-1.624 4.719-3.716 5.028-5.914h-6.919c-.051 2.546-.379 4.972-.933 7.18Zm-.46-7.18c-.057 2.778-.457 5.386-1.12 7.69-2.304.662-4.912 1.062-7.69 1.12V25.76a10.246 10.246 0 0 1 5.804-5.806h3.006Zm1.393-1.393h6.919c-.309-2.197-2.074-4.29-5.028-5.913a20.047 20.047 0 0 0-2.824-1.267c.554 2.209.882 4.634.933 7.18Zm-2.513-7.691c.663 2.305 1.063 4.913 1.12 7.691h-3.005a10.245 10.245 0 0 1-5.805-5.805V9.753c2.778.057 5.386.457 7.69 1.119Zm1.118-1.116a22.235 22.235 0 0 1 3.957 1.674c1.464.805 2.728 1.76 3.699 2.837a17.906 17.906 0 0 0-12.168-12.168c1.077.97 2.032 2.235 2.837 3.699a22.285 22.285 0 0 1 1.675 3.958ZM98.472 1.44c2.197.31 4.289 2.075 5.913 5.028.471.856.896 1.802 1.267 2.824-2.209-.555-4.634-.882-7.18-.933V1.441Z" clip-rule="evenodd"/></g></g><defs><clipPath id="a"><path fill="#fff" d="M.667 0H212.52v38.519H.667z"/></clipPath><clipPath id="b"><path fill="#fff" d="M8 0h209.927v38.519H8z"/></clipPath></defs></svg>